HIERARCHY
ROOT SimulationBone
{
	OFFSET 0.000000 0.000000 0.000000
	CHANNELS 6 Xposition Yposition Zposition Zrotation Yrotation Xrotation 
	JOINT Hips
	{
		OFFSET 0.000000 0.000000 0.000000
		CHANNELS 6 Xposition Yposition Zposition Zrotation Yrotation Xrotation 
		JOINT LeftUpLeg
		{
			OFFSET 0.103455 1.857832 10.548509
			CHANNELS 3 Zrotation Yrotation Xrotation
			JOINT LeftLeg
			{
				OFFSET 43.500000 -0.000038 0.000000
				CHANNELS 3 Zrotation Yrotation Xrotation
				JOINT LeftFoot
				{
					OFFSET 42.372196 0.000027 -0.000005
					CHANNELS 3 Zrotation Yrotation Xrotation
					JOINT LeftToe
					{
						OFFSET 17.300005 0.000000 0.000006
						CHANNELS 3 Zrotation Yrotation Xrotation
						End Site
						{
							OFFSET 0.000000 0.000000 0.000000
						}
					}
				}
			}
		}
		JOINT RightUpLeg
		{
			OFFSET 0.103456 1.857826 -10.548491
			CHANNELS 3 Zrotation Yrotation Xrotation
			JOINT RightLeg
			{
				OFFSET 43.500046 0.000000 0.000031
				CHANNELS 3 Zrotation Yrotation Xrotation
				JOINT RightFoot
				{
					OFFSET 42.372269 -0.000023 0.000007
					CHANNELS 3 Zrotation Yrotation Xrotation
					JOINT RightToe
					{
						OFFSET 17.299986 -0.000008 -0.000004
						CHANNELS 3 Zrotation Yrotation Xrotation
						End Site
						{
							OFFSET 0.000000 0.000000 0.000000
						}
					}
				}
			}
		}
		JOINT Spine
		{
			OFFSET 6.901961 -2.603715 -0.000002
			CHANNELS 3 Zrotation Yrotation Xrotation
			JOINT Spine1
			{
				OFFSET 12.588100 -0.000008 0.000001
				CHANNELS 3 Zrotation Yrotation Xrotation
				JOINT Spine2
				{
					OFFSET 12.343203 -0.000016 0.000001
					CHANNELS 3 Zrotation Yrotation Xrotation
					JOINT Neck
					{
						OFFSET 25.832899 0.000013 -0.000005
						CHANNELS 3 Zrotation Yrotation Xrotation
						JOINT Head
						{
							OFFSET 11.766600 0.000004 0.000007
							CHANNELS 3 Zrotation Yrotation Xrotation
							End Site
							{
								OFFSET 0.000000 0.000000 0.000000
							}
						}
					}
					JOINT LeftShoulder
					{
						OFFSET 19.745905 -1.480350 6.000103
						CHANNELS 3 Zrotation Yrotation Xrotation
						JOINT LeftArm
						{
							OFFSET 11.284127 0.000012 -0.000026
							CHANNELS 3 Zrotation Yrotation Xrotation
							JOINT LeftForeArm
							{
								OFFSET 33.000061 -0.000016 0.000035
								CHANNELS 3 Zrotation Yrotation Xrotation
								JOINT LeftHand
								{
									OFFSET 25.199999 0.000022 0.000000
									CHANNELS 3 Zrotation Yrotation Xrotation
									End Site
									{
										OFFSET 0.000000 0.000000 0.000000
									}
								}
							}
						}
					}
					JOINT RightShoulder
					{
						OFFSET 19.746105 -1.480368 -6.000077
						CHANNELS 3 Zrotation Yrotation Xrotation
						JOINT RightArm
						{
							OFFSET 11.284150 -0.000028 -0.000009
							CHANNELS 3 Zrotation Yrotation Xrotation
							JOINT RightForeArm
							{
								OFFSET 33.000080 0.000039 0.000015
								CHANNELS 3 Zrotation Yrotation Xrotation
								JOINT RightHand
								{
									OFFSET 25.199778 0.000128 0.000429
									CHANNELS 3 Zrotation Yrotation Xrotation
									End Site
									{
										OFFSET 0.000000 0.000000 0.000000
									}
								}
							}
						}
					}
				}
			}
		}
	}
}
MOTION
Frames: 5
Frame Time: 0.016667
-137.658851 0.000000 487.530469 180.000000 -10.069326 180.000000 6.908070 82.826896 0.329470 113.570224 0.915015 173.045453 167.524598 4.377395 179.098009 -55.977487 -0.422614 -2.022207 88.398432 1.819781 2.331279 21.454550 0.003091 -0.000000 156.309536 12.793357 -172.181786 -76.544990 -4.273072 4.104184 78.295804 1.676321 16.956079 21.454559 -0.003108 -0.000017 11.608042 -0.762830 1.369651 13.185322 -1.676950 2.643518 12.867458 -1.660826 2.653599 19.291948 6.239123 26.650627 -25.913920 -24.548935 39.290713 -144.900339 -78.993489 -37.220739 22.489679 56.511743 60.140256 -60.914970 -15.562423 2.113256 -0.404281 -9.527238 11.262444 171.521277 75.967244 -7.228330 -1.365018 -57.850598 -16.259294 -78.356994 14.923718 -2.858330 -10.074047 19.013139 -39.686794 
-133.082493 0.000000 487.785919 180.000000 -9.992843 180.000000 6.752680 83.145126 0.236071 113.061030 2.326235 171.538921 165.790917 3.023606 -179.991085 -52.484211 -1.521692 -2.238089 84.793225 2.023056 2.151423 21.454551 0.003092 -0.000000 157.898838 11.650605 -171.917883 -82.514210 -4.171133 5.316728 79.364256 0.358845 15.600027 21.454560 -0.003109 -0.000017 11.538951 -0.366350 1.736498 13.051640 -0.926488 3.420521 12.734114 -0.905693 3.426053 19.678887 6.311626 26.173431 -25.796959 -25.421704 39.141873 -142.258821 -79.082663 -39.900698 32.281847 53.059377 70.846422 -64.316086 -13.673576 2.172267 -0.345227 -10.073499 7.873689 171.295488 76.665597 -7.436514 -10.815448 -57.022570 -6.712237 -83.048235 12.107718 -2.886507 -11.858491 17.322053 -42.269550 
-128.447933 0.000000 487.989370 180.000000 -9.847093 180.000000 6.528283 83.517131 0.081791 112.163482 2.839893 170.362577 163.886583 1.986370 177.575228 -48.186530 -1.237688 -1.819364 79.975177 2.078715 3.290433 21.454550 0.003092 -0.000000 159.674699 11.303834 -172.435762 -86.742775 -4.054532 5.008443 79.247122 0.390303 14.659340 21.454555 -0.003110 -0.000017 11.338886 -0.091846 2.146659 12.657187 -0.418268 4.270274 12.340040 -0.392360 4.272723 20.624835 5.806122 25.062498 -25.822281 -25.625913 38.086862 -133.731480 -79.300091 -48.543956 39.438688 49.207373 79.239541 -69.048934 -11.720222 2.246065 -0.939530 -10.538656 5.470061 165.158277 78.848335 -13.604609 -15.990603 -58.233639 2.178423 -88.272702 8.264236 -2.897168 -14.047470 16.590713 -45.357487 
-123.770280 0.000000 488.137369 180.000000 -9.628368 180.000000 6.309666 84.015137 -0.117545 111.147291 2.770488 169.841465 162.494859 1.320206 175.168466 -42.165048 -0.833883 -1.305863 72.714015 2.162638 3.798138 21.454551 0.003092 -0.000000 162.011254 11.315598 -173.389966 -88.832333 -4.011936 3.283972 78.579222 1.625688 14.264251 21.454551 -0.003110 -0.000018 11.105631 0.110646 2.575101 12.197313 -0.051131 5.147365 11.880614 -0.019950 5.147588 21.732077 5.095474 23.699245 -26.091641 -25.406064 36.665322 -122.746854 -80.070560 -59.620620 44.920108 45.854054 84.897351 -73.428323 -9.962529 2.284065 -2.409910 -10.037251 5.551097 153.262298 81.097452 -25.551299 -18.576326 -59.877316 9.333339 -93.161949 4.721204 -2.818353 -16.624074 17.980601 -46.497926 
-119.065689 0.000000 488.231972 180.000000 -9.343958 180.000000 6.175437 84.652037 -0.327530 110.215527 2.587751 170.193583 162.051451 1.034175 176.193287 -34.010885 -1.624900 -1.412526 62.737808 1.894205 1.786773 21.454551 0.003092 0.000000 165.195081 11.038632 -174.375485 -88.444063 -4.005582 0.578125 77.770558 3.738742 14.425480 21.454553 -0.003109 -0.000019 10.928067 0.302160 2.975867 11.851209 0.297541 5.966892 11.534984 0.333641 5.965007 22.510978 4.616177 22.562425 -26.662266 -25.122310 35.533096 -111.051899 -81.912381 -71.289548 50.113930 43.493743 87.519288 -76.417780 -8.392480 2.293238 -4.601585 -7.896120 8.463151 142.126835 82.207402 -36.723199 -19.098881 -59.897289 12.404502 -96.851769 2.710046 -2.814055 -19.284091 22.035969 -44.092332 
